<svg xmlns="http://www.w3.org/2000/svg" width="30" height="30" viewBox="0 0 30 30"><g><g><g><path fill="#0000ef" d="M0 15C0 6.716 6.716 0 15 0c8.284 0 15 6.716 15 15 0 8.284-6.716 15-15 15-8.284 0-15-6.716-15-15z"/></g><g><g/><g><path fill="#ecf1f6" d="M17.337 11.495l-5.843 5.842 1.17 1.168 5.842-5.842-1.17-1.169zm.585 8.764zm0 0l-1.17-1.168-1.168 1.168a4.131 4.131 0 1 1-5.843-5.842l1.169-1.169-1.169-1.17-1.169 1.169a5.785 5.785 0 0 0 8.18 8.18zm2.337-2.337l1.17-1.169a5.785 5.785 0 0 0-8.18-8.18l-1.17 1.168 1.168 1.169 1.169-1.17a4.131 4.131 0 1 1 5.843 5.843l-1.169 1.169 1.169 1.17z"/></g></g></g></g></svg>