<svg xmlns="http://www.w3.org/2000/svg" width="30" height="30" viewBox="0 0 30 30"><g><g><g><path fill="#0000ef" d="M0 15C0 6.716 6.716 0 15 0c8.284 0 15 6.716 15 15 0 8.284-6.716 15-15 15-8.284 0-15-6.716-15-15z"/></g><g><g/><g><path fill="#ecf1f6" d="M17.835 22.5v-5.805h1.944l.291-2.257h-2.235v-1.44c0-.653.182-1.099 1.119-1.099h1.195V9.881a15.991 15.991 0 0 0-1.742-.09c-1.723 0-2.902 1.052-2.902 2.984v1.663h-1.948v2.257h1.948V22.5H8.334a.833.833 0 0 1-.834-.833V8.333c0-.46.373-.833.834-.833h13.333c.46 0 .833.373.833.833v13.334c0 .46-.373.833-.833.833z"/></g></g></g></g></svg>