<svg xmlns="http://www.w3.org/2000/svg" width="16" height="16" viewBox="0 0 16 16"><g><g><path fill="#eee" d="M14.49 4.82a3.31 3.31 0 0 0-3.31-3.31H4.82a3.31 3.31 0 0 0-3.31 3.31v6.36a3.31 3.31 0 0 0 3.31 3.31h6.36a3.31 3.31 0 0 0 3.31-3.31zM16 11.18A4.819 4.819 0 0 1 11.18 16H4.82A4.82 4.82 0 0 1 0 11.18V4.82A4.82 4.82 0 0 1 4.82 0h6.36A4.82 4.82 0 0 1 16 4.82zM10.56 8.104a2.534 2.534 0 0 0-2.532-2.53 2.534 2.534 0 0 0-2.53 2.53 2.534 2.534 0 0 0 2.53 2.531 2.534 2.534 0 0 0 2.532-2.53zm1.42 0a3.956 3.956 0 0 1-3.952 3.951 3.956 3.956 0 0 1-3.951-3.95 3.956 3.956 0 0 1 3.951-3.952 3.956 3.956 0 0 1 3.952 3.951zm1.171-4.217a.94.94 0 1 1-1.881 0 .94.94 0 0 1 1.881 0z"/></g></g></svg>