<svg xmlns="http://www.w3.org/2000/svg" width="52" height="16" viewBox="0 0 52 16"><g><g><g><g><path fill="#fff" d="M39.064.262a1.303 1.303 0 1 1 1.232 2.296A1.303 1.303 0 0 1 39.064.262z"/></g><g><g><path fill="#fff" d="M40.502 3.764h-1.556a.519.519 0 0 0-.518.52v10.81a.52.52 0 0 0 .518.519l1.555-.001a.52.52 0 0 0 .519-.518V4.282a.52.52 0 0 0-.518-.518"/></g></g></g><g><path fill="#fff" d="M22.416 5.936c.012.034.02.067.031.1.014.032.028.064.04.097.99 2.74-.455 5.785-3.222 6.783-2.767 1.001-5.824-.416-6.815-3.157-.012-.033-.02-.067-.03-.1h-.002c-.012-.033-.027-.063-.038-.097-.991-2.741.454-5.785 3.221-6.784 2.768-1 5.825.416 6.815 3.158zm-12.32 4.451c.012.034.027.065.039.097h-.001c.011.034.02.067.032.1 1.445 3.995 5.884 6.052 9.917 4.595 4.032-1.458 6.13-5.877 4.687-9.871-.012-.033-.027-.065-.04-.097h.003l-.034-.1C23.256 1.116 18.816-.94 14.784.516c-4.033 1.457-6.131 5.876-4.688 9.871z"/></g><g><g><path fill="#fff" d="M50.62 6.552a1.302 1.302 0 1 1-.032 2.605 1.302 1.302 0 0 1 .033-2.605z"/></g><g><g><path fill="#fff" d="M51.257 13.262a5.34 5.34 0 0 1-5.282-5.333 5.34 5.34 0 0 1 5.282-5.333V.167a7.763 7.763 0 0 0 0 15.524z"/></g></g></g><g><g><path fill="#fff" d="M7.802 13.262A5.34 5.34 0 0 1 2.52 7.929a5.34 5.34 0 0 1 5.282-5.333V.167a7.762 7.762 0 0 0 0 15.524z"/></g></g><g><g><g><path fill="#fff" d="M27.72 13.18A5.34 5.34 0 0 0 33 7.847a5.34 5.34 0 0 0-5.281-5.333V.085a7.764 7.764 0 0 1 7.709 7.762 7.764 7.764 0 0 1-7.71 7.763z"/></g></g><g><path fill="#fff" d="M27.72 6.26v2.647a1.326 1.326 0 0 0 0-2.647z"/></g></g></g></g></svg>