<svg xmlns="http://www.w3.org/2000/svg" width="30" height="30" viewBox="0 0 30 30"><g><g><g><path fill="#0000ef" d="M0 15C0 6.716 6.716 0 15 0c8.284 0 15 6.716 15 15 0 8.284-6.716 15-15 15-8.284 0-15-6.716-15-15z"/></g><g><g/><g><path fill="#ecf1f6" d="M23.371 9.67a6.797 6.797 0 0 1-1.978.553 3.515 3.515 0 0 0 1.516-1.945 6.8 6.8 0 0 1-2.188.853 3.394 3.394 0 0 0-4.141-.699c-1.377.752-2.085 2.354-1.728 3.905a9.715 9.715 0 0 1-7.1-3.673 3.559 3.559 0 0 0-.465 1.768c0 1.218.608 2.295 1.532 2.925a3.38 3.38 0 0 1-1.56-.44v.045c0 1.672 1.155 3.114 2.762 3.446a3.4 3.4 0 0 1-1.556.06c.45 1.433 1.744 2.415 3.218 2.443a6.814 6.814 0 0 1-5.099 1.455 9.6 9.6 0 0 0 5.28 1.58c6.335 0 9.8-5.356 9.8-10.001 0-.152-.004-.305-.01-.454a7.079 7.079 0 0 0 1.718-1.82z"/></g></g></g></g></svg>