<svg xmlns="http://www.w3.org/2000/svg" width="30" height="30" viewBox="0 0 30 30"><g><g><g><path fill="#0000ef" d="M0 15C0 6.716 6.716 0 15 0c8.284 0 15 6.716 15 15 0 8.284-6.716 15-15 15-8.284 0-15-6.716-15-15z"/></g><g><g/><g><path fill="#ecf1f6" d="M11.884 10.85a2.82 2.82 0 0 1 .335-.003c.045.003.09.008.135.013.133.016.279.096.328.208.248.563.49 1.13.723 1.7.052.126.021.289-.077.447a3.65 3.65 0 0 1-.22.311c-.094.12-.296.342-.296.342s-.083.098-.05.22a.77.77 0 0 0 .084.171l.05.08c.236.387.521.742.85 1.056.1.097.197.197.302.289.39.344.831.625 1.308.833l.004.002c.071.03.107.047.21.09.052.023.105.04.16.055a.292.292 0 0 0 .306-.108c.603-.73.658-.777.663-.777v.001c.084-.079.2-.117.315-.106.05.003.1.014.147.035.443.201 1.168.517 1.168.517l.485.218c.08.039.155.131.158.22.002.056.008.146-.012.311a2.321 2.321 0 0 1-.156.611.956.956 0 0 1-.175.252 1.912 1.912 0 0 1-.275.24c-.069.051-.105.075-.105.075-.115.073-.18.11-.319.183-.214.114-.451.18-.694.193-.155.007-.31.019-.463.01l-.474-.072a7.873 7.873 0 0 1-3.2-1.705c-.188-.166-.362-.344-.54-.522-.741-.737-1.302-1.533-1.643-2.285a2.915 2.915 0 0 1-.275-1.177 2.274 2.274 0 0 1 .47-1.399c.062-.079.118-.16.218-.255.073-.074.155-.138.245-.19a.801.801 0 0 1 .31-.083zm-1.185 11.115a8.333 8.333 0 1 0 4.192-15.537 8.333 8.333 0 0 0-7.203 12.526l-1.127 4.14z"/></g></g></g></g></svg>